%
M48
M72
T01C0.0150
T02C0.0300
%
T01
X5650Y4650
X5650Y5250
X6150Y3650
X5750Y1350
X6950Y1350
X5200Y6900
X4300Y6900
X7150Y8650
T02
X650Y650
X650Y1650
X650Y2650
X650Y3650
X650Y4650
X650Y5650
X650Y6650
X650Y7650
X650Y8650
X650Y9650
X9650Y9650
X9650Y8650
X9650Y7650
X9650Y6650
X9650Y5650
X9650Y4650
X9650Y3650
X9650Y2650
X9650Y1650
X9650Y650
M30
