G75*
G70*
%OFA0B0*%
%FSLAX24Y24*%
%IPPOS*%
%LPD*%
%AMOC8*
5,1,8,0,0,1.08239X$1,22.5*
%
%ADD10C,0.0000*%
%ADD11R,0.0531X0.0157*%
%ADD12C,0.0500*%
%ADD13R,0.0709X0.0630*%
%ADD14R,0.0984X0.0295*%
%ADD15R,0.0551X0.0472*%
%ADD16R,0.0472X0.0315*%
%ADD17C,0.0100*%
%ADD18C,0.0310*%
D10*
X000150Y000150D02*
X000150Y010146D01*
X010120Y010146D01*
X010120Y000150D01*
X000150Y000150D01*
D11*
X003998Y003998D03*
X003998Y004254D03*
X003998Y004510D03*
X003998Y004766D03*
X003998Y005022D03*
X003998Y005278D03*
X003998Y005534D03*
X003998Y005790D03*
X003998Y006046D03*
X003998Y006302D03*
X006302Y006302D03*
X006302Y006046D03*
X006302Y005790D03*
X006302Y005534D03*
X006302Y005278D03*
X006302Y005022D03*
X006302Y004766D03*
X006302Y004510D03*
X006302Y004254D03*
X006302Y003998D03*
D12*
X009650Y003650D03*
X009650Y002650D03*
X009650Y001650D03*
X009650Y000650D03*
X009650Y004650D03*
X009650Y005650D03*
X009650Y006650D03*
X009650Y007650D03*
X009650Y008650D03*
X009650Y009650D03*
X000650Y009650D03*
X000650Y008650D03*
X000650Y007650D03*
X000650Y006650D03*
X000650Y005650D03*
X000650Y004650D03*
X000650Y003650D03*
X000650Y002650D03*
X000650Y001650D03*
X000650Y000650D03*
D13*
X002850Y000799D03*
X002850Y001901D03*
X005150Y001901D03*
X005150Y000799D03*
X007550Y000799D03*
X007550Y001901D03*
X002650Y008299D03*
X002650Y009401D03*
D14*
X004363Y009650D03*
X004363Y009150D03*
X004363Y008650D03*
X004363Y008150D03*
X004363Y007650D03*
X005863Y007650D03*
X005863Y008150D03*
X005863Y008650D03*
X005863Y009150D03*
X005863Y009650D03*
D15*
X006350Y001941D03*
X006350Y000759D03*
X003950Y000759D03*
X003950Y001941D03*
D16*
X007800Y004796D03*
X007800Y005504D03*
D17*
X007504Y005504D01*
X007278Y005278D01*
X006302Y005278D01*
X005678Y005278D01*
X005650Y005250D01*
X005845Y005458D02*
X005811Y005492D01*
X005707Y005535D01*
X005593Y005535D01*
X005489Y005492D01*
X005408Y005411D01*
X005365Y005307D01*
X005365Y005193D01*
X005408Y005089D01*
X005489Y005008D01*
X005593Y004965D01*
X005707Y004965D01*
X005811Y005008D01*
X005886Y005083D01*
X005886Y005022D01*
X005886Y004924D01*
X005896Y004885D01*
X005906Y004868D01*
X005906Y004434D01*
X004980Y004434D01*
X004375Y003830D01*
X004358Y003830D01*
X004394Y003866D01*
X004394Y004586D01*
X004541Y004586D01*
X004646Y004692D01*
X005030Y005075D01*
X005422Y005075D01*
X005373Y005174D02*
X005030Y005174D01*
X005030Y005272D02*
X005365Y005272D01*
X005391Y005371D02*
X005030Y005371D01*
X005030Y005469D02*
X005466Y005469D01*
X005834Y005469D02*
X005906Y005469D01*
X005906Y005458D02*
X005845Y005458D01*
X005906Y005458D02*
X005906Y006434D01*
X005982Y006510D01*
X006621Y006510D01*
X006638Y006493D01*
X008170Y008025D01*
X008170Y009525D01*
X008342Y009696D01*
X006830Y009696D01*
X006830Y008830D01*
X006927Y008830D01*
X006989Y008892D01*
X007093Y008935D01*
X007207Y008935D01*
X007311Y008892D01*
X007392Y008811D01*
X007435Y008707D01*
X007435Y008593D01*
X007392Y008489D01*
X007311Y008408D01*
X007207Y008365D01*
X007093Y008365D01*
X006989Y008408D01*
X006927Y008470D01*
X006830Y008470D01*
X006830Y008075D01*
X006725Y007970D01*
X006485Y007970D01*
X006485Y007949D01*
X006450Y007914D01*
X006475Y007890D01*
X006495Y007856D01*
X006505Y007817D01*
X006505Y007674D01*
X005886Y007674D01*
X005886Y007626D01*
X005886Y007352D01*
X006374Y007352D01*
X006413Y007363D01*
X006447Y007382D01*
X006475Y007410D01*
X006495Y007444D01*
X006505Y007483D01*
X006505Y007626D01*
X005886Y007626D01*
X005839Y007626D01*
X005839Y007352D01*
X005351Y007352D01*
X005313Y007363D01*
X005278Y007382D01*
X005250Y007410D01*
X005231Y007444D01*
X005220Y007483D01*
X005220Y007626D01*
X005839Y007626D01*
X005839Y007674D01*
X005220Y007674D01*
X005220Y007817D01*
X005231Y007856D01*
X005250Y007890D01*
X005275Y007914D01*
X005240Y007949D01*
X005240Y008351D01*
X005289Y008400D01*
X005240Y008449D01*
X005240Y008851D01*
X005289Y008900D01*
X005240Y008949D01*
X005240Y009351D01*
X005289Y009400D01*
X005240Y009449D01*
X005240Y009696D01*
X004985Y009696D01*
X004985Y009449D01*
X004936Y009400D01*
X004985Y009351D01*
X004985Y008949D01*
X004936Y008900D01*
X004985Y008851D01*
X004985Y008449D01*
X004936Y008400D01*
X004985Y008351D01*
X004985Y007949D01*
X004936Y007900D01*
X004985Y007851D01*
X004985Y007449D01*
X004945Y007409D01*
X005030Y007325D01*
X005030Y005075D01*
X004931Y004977D02*
X005566Y004977D01*
X005734Y004977D02*
X005886Y004977D01*
X005886Y005022D02*
X006302Y005022D01*
X006302Y005022D01*
X006717Y005022D01*
X006717Y004946D01*
X007208Y004946D01*
X007414Y004741D01*
X007414Y004767D01*
X007771Y004767D01*
X007771Y004824D01*
X007414Y004824D01*
X007414Y004973D01*
X007424Y005011D01*
X007444Y005045D01*
X007472Y005073D01*
X007506Y005093D01*
X007544Y005103D01*
X007771Y005103D01*
X007771Y004824D01*
X007829Y004824D01*
X008186Y004824D01*
X008186Y004973D01*
X008176Y005011D01*
X008156Y005045D01*
X008128Y005073D01*
X008094Y005093D01*
X008056Y005103D01*
X007829Y005103D01*
X007829Y004824D01*
X007829Y004767D01*
X008186Y004767D01*
X008186Y004618D01*
X008176Y004580D01*
X008156Y004546D01*
X008128Y004518D01*
X008094Y004498D01*
X008056Y004488D01*
X007829Y004488D01*
X007829Y004767D01*
X007771Y004767D01*
X007771Y004488D01*
X007666Y004488D01*
X008325Y003830D01*
X009313Y003830D01*
X009328Y003865D01*
X009435Y003972D01*
X009574Y004030D01*
X009670Y004030D01*
X009670Y004625D01*
X009625Y004625D01*
X009625Y004250D01*
X009611Y004250D01*
X009533Y004265D01*
X009461Y004296D01*
X009395Y004339D01*
X009339Y004395D01*
X009296Y004461D01*
X009265Y004533D01*
X009250Y004611D01*
X009250Y004625D01*
X009625Y004625D01*
X009625Y004675D01*
X009625Y005050D01*
X009611Y005050D01*
X009533Y005035D01*
X009461Y005004D01*
X009395Y004961D01*
X009339Y004905D01*
X009296Y004839D01*
X009265Y004767D01*
X009250Y004689D01*
X009250Y004675D01*
X009625Y004675D01*
X009670Y004675D01*
X009670Y005270D01*
X009574Y005270D01*
X009435Y005328D01*
X009328Y005435D01*
X009270Y005574D01*
X009270Y005726D01*
X009328Y005865D01*
X009435Y005972D01*
X009574Y006030D01*
X009670Y006030D01*
X009670Y006270D01*
X009574Y006270D01*
X009435Y006328D01*
X009328Y006435D01*
X009313Y006470D01*
X008325Y006470D01*
X007646Y005792D01*
X008090Y005792D01*
X008166Y005716D01*
X008166Y005293D01*
X008090Y005217D01*
X007510Y005217D01*
X007491Y005236D01*
X007458Y005203D01*
X007353Y005098D01*
X006717Y005098D01*
X006717Y005022D01*
X006302Y005022D01*
X006302Y005022D01*
X005886Y005022D01*
X005878Y005075D02*
X005886Y005075D01*
X005900Y004878D02*
X004833Y004878D01*
X004734Y004780D02*
X005906Y004780D01*
X005906Y004681D02*
X004636Y004681D01*
X004466Y004766D02*
X003998Y004766D01*
X002566Y004766D01*
X001450Y003650D01*
X000650Y003650D01*
X001350Y002750D02*
X001350Y001850D01*
X001150Y001650D01*
X000650Y001650D01*
X000650Y000650D02*
X001250Y000650D01*
X001650Y001050D01*
X001650Y002650D01*
X002998Y003998D01*
X003998Y003998D01*
X003998Y004254D02*
X002854Y004254D01*
X001350Y002750D01*
X001830Y002575D02*
X003073Y003818D01*
X003264Y003818D01*
X002775Y003330D01*
X002670Y003225D01*
X002670Y002346D01*
X002442Y002346D01*
X002366Y002270D01*
X002366Y001532D01*
X002442Y001456D01*
X003258Y001456D01*
X003334Y001532D01*
X003334Y002270D01*
X003258Y002346D01*
X003030Y002346D01*
X003030Y003075D01*
X003425Y003470D01*
X004015Y003470D01*
X003875Y003330D01*
X003770Y003225D01*
X003770Y002307D01*
X003621Y002307D01*
X003544Y002231D01*
X003544Y001650D01*
X003621Y001574D01*
X004279Y001574D01*
X004356Y001650D01*
X004356Y002231D01*
X004279Y002307D01*
X004130Y002307D01*
X004130Y003075D01*
X004225Y003170D01*
X004625Y003170D01*
X004730Y003275D01*
X005273Y003818D01*
X005953Y003818D01*
X005982Y003790D01*
X006621Y003790D01*
X006638Y003807D01*
X008470Y001975D01*
X008470Y000875D01*
X008745Y000600D01*
X008034Y000600D01*
X008034Y001168D01*
X007958Y001244D01*
X007698Y001244D01*
X007730Y001275D01*
X007730Y001456D01*
X007958Y001456D01*
X008034Y001532D01*
X008034Y002270D01*
X007958Y002346D01*
X007142Y002346D01*
X007066Y002270D01*
X007066Y001611D01*
X007007Y001635D01*
X006893Y001635D01*
X006789Y001592D01*
X006708Y001511D01*
X006665Y001407D01*
X006665Y001293D01*
X006708Y001189D01*
X006789Y001108D01*
X006893Y001065D01*
X007007Y001065D01*
X007066Y001089D01*
X007066Y000939D01*
X006756Y000939D01*
X006756Y001050D01*
X006679Y001126D01*
X006021Y001126D01*
X005944Y001050D01*
X005944Y000600D01*
X005634Y000600D01*
X005634Y001089D01*
X005693Y001065D01*
X005807Y001065D01*
X005911Y001108D01*
X005992Y001189D01*
X006035Y001293D01*
X006035Y001407D01*
X005992Y001511D01*
X005911Y001592D01*
X005807Y001635D01*
X005693Y001635D01*
X005634Y001611D01*
X005634Y002270D01*
X005558Y002346D01*
X004742Y002346D01*
X004666Y002270D01*
X004666Y001532D01*
X004742Y001456D01*
X004989Y001456D01*
X005170Y001275D01*
X005202Y001244D01*
X004742Y001244D01*
X004666Y001168D01*
X004666Y000939D01*
X004356Y000939D01*
X004356Y001050D01*
X004279Y001126D01*
X003621Y001126D01*
X003544Y001050D01*
X003544Y000600D01*
X003354Y000600D01*
X003354Y000749D01*
X002900Y000749D01*
X002900Y000849D01*
X002800Y000849D01*
X002800Y001264D01*
X002476Y001264D01*
X002438Y001254D01*
X002404Y001234D01*
X002376Y001206D01*
X002356Y001172D01*
X002346Y001134D01*
X002346Y000849D01*
X002800Y000849D01*
X002800Y000749D01*
X002346Y000749D01*
X002346Y000600D01*
X001455Y000600D01*
X001830Y000975D01*
X001830Y002575D01*
X001867Y002613D02*
X002670Y002613D01*
X002670Y002711D02*
X001966Y002711D01*
X002064Y002810D02*
X002670Y002810D01*
X002670Y002908D02*
X002163Y002908D01*
X002261Y003007D02*
X002670Y003007D01*
X002670Y003105D02*
X002360Y003105D01*
X002458Y003204D02*
X002670Y003204D01*
X002747Y003302D02*
X002557Y003302D01*
X002655Y003401D02*
X002846Y003401D01*
X002754Y003499D02*
X002944Y003499D01*
X002852Y003598D02*
X003043Y003598D01*
X002951Y003696D02*
X003141Y003696D01*
X003049Y003795D02*
X003240Y003795D01*
X003350Y003650D02*
X002850Y003150D01*
X002850Y001901D01*
X003287Y002317D02*
X003770Y002317D01*
X003770Y002416D02*
X003030Y002416D01*
X003030Y002514D02*
X003770Y002514D01*
X003770Y002613D02*
X003030Y002613D01*
X003030Y002711D02*
X003770Y002711D01*
X003770Y002810D02*
X003030Y002810D01*
X003030Y002908D02*
X003770Y002908D01*
X003770Y003007D02*
X003030Y003007D01*
X003060Y003105D02*
X003770Y003105D01*
X003770Y003204D02*
X003158Y003204D01*
X003257Y003302D02*
X003847Y003302D01*
X003946Y003401D02*
X003355Y003401D01*
X003350Y003650D02*
X004450Y003650D01*
X005054Y004254D01*
X006302Y004254D01*
X006846Y004254D01*
X008950Y002150D01*
X008950Y001750D01*
X009050Y001650D01*
X009650Y001650D01*
X009650Y002650D02*
X008850Y002650D01*
X006990Y004510D01*
X006302Y004510D01*
X006302Y004766D02*
X007134Y004766D01*
X008250Y003650D01*
X009650Y003650D01*
X009481Y003992D02*
X008163Y003992D01*
X008065Y004090D02*
X009670Y004090D01*
X009670Y004189D02*
X007966Y004189D01*
X007868Y004287D02*
X009481Y004287D01*
X009625Y004287D02*
X009670Y004287D01*
X009670Y004386D02*
X009625Y004386D01*
X009625Y004484D02*
X009670Y004484D01*
X009670Y004583D02*
X009625Y004583D01*
X009625Y004681D02*
X009670Y004681D01*
X009670Y004780D02*
X009625Y004780D01*
X009625Y004878D02*
X009670Y004878D01*
X009670Y004977D02*
X009625Y004977D01*
X009670Y005075D02*
X008125Y005075D01*
X008185Y004977D02*
X009419Y004977D01*
X009321Y004878D02*
X008186Y004878D01*
X008186Y004681D02*
X009250Y004681D01*
X009256Y004583D02*
X008177Y004583D01*
X007829Y004583D02*
X007771Y004583D01*
X007771Y004681D02*
X007829Y004681D01*
X007829Y004780D02*
X009271Y004780D01*
X009286Y004484D02*
X007671Y004484D01*
X007769Y004386D02*
X009349Y004386D01*
X009356Y003893D02*
X008262Y003893D01*
X007771Y004780D02*
X007375Y004780D01*
X007414Y004878D02*
X007277Y004878D01*
X007415Y004977D02*
X006717Y004977D01*
X006717Y005075D02*
X007475Y005075D01*
X007428Y005174D02*
X009670Y005174D01*
X009570Y005272D02*
X008145Y005272D01*
X008166Y005371D02*
X009392Y005371D01*
X009314Y005469D02*
X008166Y005469D01*
X008166Y005568D02*
X009273Y005568D01*
X009270Y005666D02*
X008166Y005666D01*
X008117Y005765D02*
X009286Y005765D01*
X009327Y005863D02*
X007718Y005863D01*
X007816Y005962D02*
X009424Y005962D01*
X009670Y006060D02*
X007915Y006060D01*
X008013Y006159D02*
X009670Y006159D01*
X009670Y006257D02*
X008112Y006257D01*
X008210Y006356D02*
X009407Y006356D01*
X009320Y006454D02*
X008309Y006454D01*
X008250Y006650D02*
X009650Y006650D01*
X009650Y007650D02*
X008850Y007650D01*
X006990Y005790D01*
X006302Y005790D01*
X006302Y006046D02*
X006846Y006046D01*
X008650Y007850D01*
X008650Y008450D01*
X008850Y008650D01*
X009650Y008650D01*
X009650Y009650D02*
X008550Y009650D01*
X008350Y009450D01*
X008350Y007950D01*
X006702Y006302D01*
X006302Y006302D01*
X005906Y006257D02*
X005030Y006257D01*
X005030Y006159D02*
X005906Y006159D01*
X005906Y006060D02*
X005030Y006060D01*
X005030Y005962D02*
X005906Y005962D01*
X005906Y005863D02*
X005030Y005863D01*
X005030Y005765D02*
X005906Y005765D01*
X005906Y005666D02*
X005030Y005666D01*
X005030Y005568D02*
X005906Y005568D01*
X006302Y005534D02*
X007134Y005534D01*
X008250Y006650D01*
X007584Y007439D02*
X006491Y007439D01*
X006505Y007538D02*
X007683Y007538D01*
X007781Y007636D02*
X005886Y007636D01*
X005839Y007636D02*
X004985Y007636D01*
X004985Y007538D02*
X005220Y007538D01*
X005234Y007439D02*
X004975Y007439D01*
X005014Y007341D02*
X007486Y007341D01*
X007387Y007242D02*
X005030Y007242D01*
X005030Y007144D02*
X007289Y007144D01*
X007190Y007045D02*
X005030Y007045D01*
X005030Y006947D02*
X007092Y006947D01*
X006993Y006848D02*
X005030Y006848D01*
X005030Y006750D02*
X006895Y006750D01*
X006796Y006651D02*
X005030Y006651D01*
X005030Y006553D02*
X006698Y006553D01*
X005926Y006454D02*
X005030Y006454D01*
X005030Y006356D02*
X005906Y006356D01*
X005886Y007439D02*
X005839Y007439D01*
X005839Y007538D02*
X005886Y007538D01*
X006468Y007932D02*
X008077Y007932D01*
X008170Y008030D02*
X006785Y008030D01*
X006830Y008129D02*
X008170Y008129D01*
X008170Y008227D02*
X006830Y008227D01*
X006830Y008326D02*
X008170Y008326D01*
X008170Y008424D02*
X007327Y008424D01*
X007406Y008523D02*
X008170Y008523D01*
X008170Y008621D02*
X007435Y008621D01*
X007430Y008720D02*
X008170Y008720D01*
X008170Y008818D02*
X007385Y008818D01*
X007251Y008917D02*
X008170Y008917D01*
X008170Y009015D02*
X006830Y009015D01*
X006830Y008917D02*
X007049Y008917D01*
X007150Y008650D02*
X006650Y008650D01*
X005863Y008650D01*
X005863Y008150D02*
X006650Y008150D01*
X006650Y008650D01*
X006650Y009650D01*
X005863Y009650D01*
X005280Y009409D02*
X004945Y009409D01*
X004985Y009311D02*
X005240Y009311D01*
X005240Y009212D02*
X004985Y009212D01*
X004985Y009114D02*
X005240Y009114D01*
X005240Y009015D02*
X004985Y009015D01*
X004953Y008917D02*
X005272Y008917D01*
X005240Y008818D02*
X004985Y008818D01*
X004985Y008720D02*
X005240Y008720D01*
X005240Y008621D02*
X004985Y008621D01*
X004985Y008523D02*
X005240Y008523D01*
X005265Y008424D02*
X004960Y008424D01*
X004985Y008326D02*
X005240Y008326D01*
X005240Y008227D02*
X004985Y008227D01*
X004985Y008129D02*
X005240Y008129D01*
X005240Y008030D02*
X004985Y008030D01*
X004968Y007932D02*
X005257Y007932D01*
X005225Y007833D02*
X004985Y007833D01*
X004985Y007735D02*
X005220Y007735D01*
X004850Y007250D02*
X004850Y005150D01*
X004466Y004766D01*
X004394Y004583D02*
X005906Y004583D01*
X005906Y004484D02*
X004394Y004484D01*
X004394Y004386D02*
X004931Y004386D01*
X004832Y004287D02*
X004394Y004287D01*
X004394Y004189D02*
X004734Y004189D01*
X004635Y004090D02*
X004394Y004090D01*
X004394Y003992D02*
X004537Y003992D01*
X004438Y003893D02*
X004394Y003893D01*
X004550Y003350D02*
X004150Y003350D01*
X003950Y003150D01*
X003950Y001941D01*
X004356Y001923D02*
X004666Y001923D01*
X004666Y001825D02*
X004356Y001825D01*
X004356Y001726D02*
X004666Y001726D01*
X004666Y001628D02*
X004333Y001628D01*
X004669Y001529D02*
X003331Y001529D01*
X003334Y001628D02*
X003567Y001628D01*
X003544Y001726D02*
X003334Y001726D01*
X003334Y001825D02*
X003544Y001825D01*
X003544Y001923D02*
X003334Y001923D01*
X003334Y002022D02*
X003544Y002022D01*
X003544Y002120D02*
X003334Y002120D01*
X003334Y002219D02*
X003544Y002219D01*
X004130Y002317D02*
X004713Y002317D01*
X004666Y002219D02*
X004356Y002219D01*
X004356Y002120D02*
X004666Y002120D01*
X004666Y002022D02*
X004356Y002022D01*
X004130Y002416D02*
X008030Y002416D01*
X007987Y002317D02*
X008128Y002317D01*
X008034Y002219D02*
X008227Y002219D01*
X008325Y002120D02*
X008034Y002120D01*
X008034Y002022D02*
X008424Y002022D01*
X008470Y001923D02*
X008034Y001923D01*
X008034Y001825D02*
X008470Y001825D01*
X008470Y001726D02*
X008034Y001726D01*
X008034Y001628D02*
X008470Y001628D01*
X008470Y001529D02*
X008031Y001529D01*
X007730Y001431D02*
X008470Y001431D01*
X008470Y001332D02*
X007730Y001332D01*
X007550Y001350D02*
X006950Y001350D01*
X006762Y001135D02*
X005938Y001135D01*
X005944Y001037D02*
X005634Y001037D01*
X005634Y000938D02*
X005944Y000938D01*
X005944Y000840D02*
X005634Y000840D01*
X005634Y000741D02*
X005944Y000741D01*
X005944Y000643D02*
X005634Y000643D01*
X005150Y000759D02*
X005150Y000799D01*
X005150Y000759D02*
X003950Y000759D01*
X003544Y000741D02*
X003354Y000741D01*
X003354Y000643D02*
X003544Y000643D01*
X003544Y000840D02*
X002900Y000840D01*
X002900Y000849D02*
X003354Y000849D01*
X003354Y001134D01*
X003344Y001172D01*
X003324Y001206D01*
X003296Y001234D01*
X003262Y001254D01*
X003224Y001264D01*
X002900Y001264D01*
X002900Y000849D01*
X002900Y000938D02*
X002800Y000938D01*
X002800Y000840D02*
X001694Y000840D01*
X001793Y000938D02*
X002346Y000938D01*
X002346Y001037D02*
X001830Y001037D01*
X001830Y001135D02*
X002346Y001135D01*
X002403Y001234D02*
X001830Y001234D01*
X001830Y001332D02*
X005113Y001332D01*
X005015Y001431D02*
X001830Y001431D01*
X001830Y001529D02*
X002369Y001529D01*
X002366Y001628D02*
X001830Y001628D01*
X001830Y001726D02*
X002366Y001726D01*
X002366Y001825D02*
X001830Y001825D01*
X001830Y001923D02*
X002366Y001923D01*
X002366Y002022D02*
X001830Y002022D01*
X001830Y002120D02*
X002366Y002120D01*
X002366Y002219D02*
X001830Y002219D01*
X001830Y002317D02*
X002413Y002317D01*
X002670Y002416D02*
X001830Y002416D01*
X001830Y002514D02*
X002670Y002514D01*
X002800Y001234D02*
X002900Y001234D01*
X002900Y001135D02*
X002800Y001135D01*
X002800Y001037D02*
X002900Y001037D01*
X003297Y001234D02*
X004732Y001234D01*
X004666Y001135D02*
X003354Y001135D01*
X003354Y001037D02*
X003544Y001037D01*
X003544Y000938D02*
X003354Y000938D01*
X004356Y001037D02*
X004666Y001037D01*
X005150Y001550D02*
X005350Y001350D01*
X005750Y001350D01*
X005982Y001584D02*
X005954Y001612D01*
X005935Y001646D01*
X005924Y001685D01*
X005924Y001891D01*
X006300Y001891D01*
X006300Y001991D01*
X006300Y002327D01*
X006055Y002327D01*
X006017Y002317D01*
X005982Y002297D01*
X005954Y002269D01*
X005935Y002235D01*
X005924Y002197D01*
X005924Y001991D01*
X006300Y001991D01*
X006400Y001991D01*
X006400Y002327D01*
X006645Y002327D01*
X006683Y002317D01*
X006718Y002297D01*
X006746Y002269D01*
X006765Y002235D01*
X006776Y002197D01*
X006776Y001991D01*
X006400Y001991D01*
X006400Y001891D01*
X006776Y001891D01*
X006776Y001685D01*
X006765Y001646D01*
X006746Y001612D01*
X006718Y001584D01*
X006683Y001565D01*
X006645Y001554D01*
X006400Y001554D01*
X006400Y001891D01*
X006300Y001891D01*
X006300Y001554D01*
X006055Y001554D01*
X006017Y001565D01*
X005982Y001584D01*
X005974Y001529D02*
X006726Y001529D01*
X006754Y001628D02*
X006875Y001628D01*
X006776Y001726D02*
X007066Y001726D01*
X007066Y001628D02*
X007025Y001628D01*
X007066Y001825D02*
X006776Y001825D01*
X006776Y002022D02*
X007066Y002022D01*
X007066Y002120D02*
X006776Y002120D01*
X006770Y002219D02*
X007066Y002219D01*
X007113Y002317D02*
X006682Y002317D01*
X006400Y002317D02*
X006300Y002317D01*
X006300Y002219D02*
X006400Y002219D01*
X006400Y002120D02*
X006300Y002120D01*
X006300Y002022D02*
X006400Y002022D01*
X006400Y001923D02*
X007066Y001923D01*
X006675Y001431D02*
X006025Y001431D01*
X006035Y001332D02*
X006665Y001332D01*
X006690Y001234D02*
X006010Y001234D01*
X005946Y001628D02*
X005825Y001628D01*
X005924Y001726D02*
X005634Y001726D01*
X005634Y001628D02*
X005675Y001628D01*
X005634Y001825D02*
X005924Y001825D01*
X005924Y002022D02*
X005634Y002022D01*
X005634Y002120D02*
X005924Y002120D01*
X005930Y002219D02*
X005634Y002219D01*
X005587Y002317D02*
X006018Y002317D01*
X006300Y001923D02*
X005634Y001923D01*
X005150Y001901D02*
X005150Y001550D01*
X004130Y002514D02*
X007931Y002514D01*
X007833Y002613D02*
X004130Y002613D01*
X004130Y002711D02*
X007734Y002711D01*
X007636Y002810D02*
X004130Y002810D01*
X004130Y002908D02*
X007537Y002908D01*
X007439Y003007D02*
X004130Y003007D01*
X004160Y003105D02*
X007340Y003105D01*
X007242Y003204D02*
X004658Y003204D01*
X004757Y003302D02*
X007143Y003302D01*
X007045Y003401D02*
X004855Y003401D01*
X004954Y003499D02*
X006946Y003499D01*
X006848Y003598D02*
X005052Y003598D01*
X005151Y003696D02*
X006749Y003696D01*
X006651Y003795D02*
X006626Y003795D01*
X006702Y003998D02*
X008650Y002050D01*
X008650Y000950D01*
X008950Y000650D01*
X009650Y000650D01*
X008703Y000643D02*
X008034Y000643D01*
X008034Y000741D02*
X008604Y000741D01*
X008506Y000840D02*
X008034Y000840D01*
X008034Y000938D02*
X008470Y000938D01*
X008470Y001037D02*
X008034Y001037D01*
X008034Y001135D02*
X008470Y001135D01*
X008470Y001234D02*
X007968Y001234D01*
X007550Y001350D02*
X007550Y001901D01*
X007066Y001037D02*
X006756Y001037D01*
X006350Y000759D02*
X007750Y000759D01*
X007550Y000799D01*
X006400Y001628D02*
X006300Y001628D01*
X006300Y001726D02*
X006400Y001726D01*
X006400Y001825D02*
X006300Y001825D01*
X004550Y003350D02*
X005198Y003998D01*
X006302Y003998D01*
X006702Y003998D01*
X005977Y003795D02*
X005249Y003795D01*
X004422Y005022D02*
X003998Y005022D01*
X002422Y005022D01*
X002050Y004650D01*
X000650Y004650D01*
X000650Y005650D02*
X002050Y005650D01*
X002422Y005278D01*
X003998Y005278D01*
X003998Y005534D02*
X004334Y005534D01*
X004450Y005650D01*
X004450Y006450D01*
X004350Y006550D01*
X003150Y006550D01*
X001850Y007850D01*
X001850Y008750D01*
X002501Y009401D01*
X002650Y009401D01*
X002899Y009650D01*
X004363Y009650D01*
X004985Y009606D02*
X005240Y009606D01*
X005240Y009508D02*
X004985Y009508D01*
X003789Y009400D02*
X003740Y009351D01*
X003740Y008949D01*
X003789Y008900D01*
X003740Y008851D01*
X003740Y008449D01*
X003789Y008400D01*
X003740Y008351D01*
X003740Y008295D01*
X003675Y008230D01*
X003570Y008125D01*
X003570Y007275D01*
X003670Y007175D01*
X003775Y007070D01*
X004375Y007070D01*
X004470Y006975D01*
X004470Y006685D01*
X004425Y006730D01*
X003225Y006730D01*
X002030Y007925D01*
X002030Y008675D01*
X002311Y008956D01*
X003058Y008956D01*
X003134Y009032D01*
X003134Y009470D01*
X003740Y009470D01*
X003740Y009449D01*
X003789Y009400D01*
X003780Y009409D02*
X003134Y009409D01*
X003134Y009311D02*
X003740Y009311D01*
X003740Y009212D02*
X003134Y009212D01*
X003134Y009114D02*
X003740Y009114D01*
X003740Y009015D02*
X003117Y009015D01*
X003062Y008754D02*
X003024Y008764D01*
X002700Y008764D01*
X002700Y008349D01*
X002600Y008349D01*
X002600Y008764D01*
X002276Y008764D01*
X002238Y008754D01*
X002204Y008734D01*
X002176Y008706D01*
X002156Y008672D01*
X002146Y008634D01*
X002146Y008349D01*
X002600Y008349D01*
X002600Y008249D01*
X002146Y008249D01*
X002146Y007964D01*
X002156Y007926D01*
X002176Y007892D01*
X002204Y007864D01*
X002238Y007844D01*
X002276Y007834D01*
X002600Y007834D01*
X002600Y008249D01*
X002700Y008249D01*
X002700Y008349D01*
X003154Y008349D01*
X003154Y008634D01*
X003144Y008672D01*
X003124Y008706D01*
X003096Y008734D01*
X003062Y008754D01*
X003111Y008720D02*
X003740Y008720D01*
X003740Y008818D02*
X002173Y008818D01*
X002189Y008720D02*
X002074Y008720D01*
X002030Y008621D02*
X002146Y008621D01*
X002146Y008523D02*
X002030Y008523D01*
X002030Y008424D02*
X002146Y008424D01*
X002030Y008326D02*
X002600Y008326D01*
X002600Y008424D02*
X002700Y008424D01*
X002700Y008326D02*
X003740Y008326D01*
X003765Y008424D02*
X003154Y008424D01*
X003154Y008523D02*
X003740Y008523D01*
X003740Y008621D02*
X003154Y008621D01*
X003154Y008249D02*
X003154Y007964D01*
X003144Y007926D01*
X003124Y007892D01*
X003096Y007864D01*
X003062Y007844D01*
X003024Y007834D01*
X002700Y007834D01*
X002700Y008249D01*
X003154Y008249D01*
X003154Y008227D02*
X003672Y008227D01*
X003574Y008129D02*
X003154Y008129D01*
X003154Y008030D02*
X003570Y008030D01*
X003570Y007932D02*
X003146Y007932D01*
X003570Y007833D02*
X002122Y007833D01*
X002154Y007932D02*
X002030Y007932D01*
X002030Y008030D02*
X002146Y008030D01*
X002146Y008129D02*
X002030Y008129D01*
X002030Y008227D02*
X002146Y008227D01*
X002600Y008227D02*
X002700Y008227D01*
X002700Y008129D02*
X002600Y008129D01*
X002600Y008030D02*
X002700Y008030D01*
X002700Y007932D02*
X002600Y007932D01*
X002319Y007636D02*
X003570Y007636D01*
X003570Y007538D02*
X002417Y007538D01*
X002516Y007439D02*
X003570Y007439D01*
X003570Y007341D02*
X002614Y007341D01*
X002713Y007242D02*
X003603Y007242D01*
X003702Y007144D02*
X002811Y007144D01*
X002910Y007045D02*
X004400Y007045D01*
X004470Y006947D02*
X003008Y006947D01*
X003107Y006848D02*
X004470Y006848D01*
X004470Y006750D02*
X003205Y006750D01*
X002998Y006302D02*
X001550Y007750D01*
X001550Y009250D01*
X001150Y009650D01*
X000650Y009650D01*
X000650Y008650D02*
X001050Y008650D01*
X001250Y008450D01*
X001250Y007650D01*
X002854Y006046D01*
X003998Y006046D01*
X003998Y005790D02*
X002710Y005790D01*
X000850Y007650D01*
X000650Y007650D01*
X000650Y006650D02*
X001450Y006650D01*
X002566Y005534D01*
X003998Y005534D01*
X004422Y005022D02*
X004650Y005250D01*
X004650Y007050D01*
X004450Y007250D01*
X003850Y007250D01*
X003750Y007350D01*
X003750Y008050D01*
X003850Y008150D01*
X004363Y008150D01*
X004363Y007650D02*
X004450Y007650D01*
X004850Y007250D01*
X003998Y006302D02*
X002998Y006302D01*
X003570Y007735D02*
X002220Y007735D01*
X002600Y008523D02*
X002700Y008523D01*
X002700Y008621D02*
X002600Y008621D01*
X002600Y008720D02*
X002700Y008720D01*
X002271Y008917D02*
X003772Y008917D01*
X006501Y007833D02*
X007978Y007833D01*
X007880Y007735D02*
X006505Y007735D01*
X006830Y008424D02*
X006973Y008424D01*
X006830Y009114D02*
X008170Y009114D01*
X008170Y009212D02*
X006830Y009212D01*
X006830Y009311D02*
X008170Y009311D01*
X008170Y009409D02*
X006830Y009409D01*
X006830Y009508D02*
X008170Y009508D01*
X008251Y009606D02*
X006830Y009606D01*
X007771Y005075D02*
X007829Y005075D01*
X007829Y004977D02*
X007771Y004977D01*
X007771Y004878D02*
X007829Y004878D01*
X003998Y004510D02*
X002710Y004510D01*
X000850Y002650D01*
X000650Y002650D01*
X001596Y000741D02*
X002346Y000741D01*
X002346Y000643D02*
X001497Y000643D01*
D18*
X005650Y004650D03*
X005650Y005250D03*
X006150Y003650D03*
X005750Y001350D03*
X006950Y001350D03*
X005200Y006900D03*
X004300Y006900D03*
X007150Y008650D03*
M02*
