G75*
G70*
%OFA0B0*%
%FSLAX24Y24*%
%IPPOS*%
%LPD*%
%AMOC8*
5,1,8,0,0,1.08239X$1,22.5*
%
%ADD10C,0.0000*%
%ADD11C,0.0030*%
%ADD12C,0.0050*%
%ADD13C,0.0020*%
%ADD14C,0.0080*%
%ADD15C,0.0060*%
D10*
X000150Y000150D02*
X000150Y010146D01*
X010120Y010146D01*
X010120Y000150D01*
X000150Y000150D01*
D11*
X001265Y000465D02*
X001265Y000835D01*
X001450Y000835D01*
X001512Y000774D01*
X001512Y000650D01*
X001450Y000588D01*
X001265Y000588D01*
X001633Y000465D02*
X001880Y000465D01*
X001757Y000465D02*
X001757Y000835D01*
X001633Y000712D01*
X002002Y000774D02*
X002002Y000527D01*
X002249Y000774D01*
X002249Y000527D01*
X002187Y000465D01*
X002063Y000465D01*
X002002Y000527D01*
X002002Y000774D02*
X002063Y000835D01*
X002187Y000835D01*
X002249Y000774D01*
X001818Y001465D02*
X001695Y001465D01*
X001633Y001527D01*
X001695Y001650D02*
X001633Y001712D01*
X001633Y001774D01*
X001695Y001835D01*
X001818Y001835D01*
X001880Y001774D01*
X001880Y001527D01*
X001818Y001465D01*
X001880Y001650D02*
X001695Y001650D01*
X001512Y001650D02*
X001450Y001588D01*
X001265Y001588D01*
X001265Y001465D02*
X001265Y001835D01*
X001450Y001835D01*
X001512Y001774D01*
X001512Y001650D01*
X001695Y002465D02*
X001633Y002527D01*
X001633Y002588D01*
X001695Y002650D01*
X001818Y002650D01*
X001880Y002588D01*
X001880Y002527D01*
X001818Y002465D01*
X001695Y002465D01*
X001695Y002650D02*
X001633Y002712D01*
X001633Y002774D01*
X001695Y002835D01*
X001818Y002835D01*
X001880Y002774D01*
X001880Y002712D01*
X001818Y002650D01*
X001512Y002650D02*
X001450Y002588D01*
X001265Y002588D01*
X001265Y002465D02*
X001265Y002835D01*
X001450Y002835D01*
X001512Y002774D01*
X001512Y002650D01*
X001633Y003465D02*
X001633Y003527D01*
X001880Y003774D01*
X001880Y003835D01*
X001633Y003835D01*
X001512Y003774D02*
X001512Y003650D01*
X001450Y003588D01*
X001265Y003588D01*
X001265Y003465D02*
X001265Y003835D01*
X001450Y003835D01*
X001512Y003774D01*
X001695Y004465D02*
X001633Y004527D01*
X001633Y004650D01*
X001818Y004650D01*
X001880Y004588D01*
X001880Y004527D01*
X001818Y004465D01*
X001695Y004465D01*
X001633Y004650D02*
X001757Y004774D01*
X001880Y004835D01*
X001512Y004774D02*
X001512Y004650D01*
X001450Y004588D01*
X001265Y004588D01*
X001265Y004465D02*
X001265Y004835D01*
X001450Y004835D01*
X001512Y004774D01*
X001695Y005465D02*
X001633Y005527D01*
X001695Y005465D02*
X001818Y005465D01*
X001880Y005527D01*
X001880Y005650D01*
X001818Y005712D01*
X001757Y005712D01*
X001633Y005650D01*
X001633Y005835D01*
X001880Y005835D01*
X001512Y005774D02*
X001512Y005650D01*
X001450Y005588D01*
X001265Y005588D01*
X001265Y005465D02*
X001265Y005835D01*
X001450Y005835D01*
X001512Y005774D01*
X001265Y006465D02*
X001265Y006835D01*
X001450Y006835D01*
X001512Y006774D01*
X001512Y006650D01*
X001450Y006588D01*
X001265Y006588D01*
X001633Y006650D02*
X001880Y006650D01*
X001818Y006465D02*
X001818Y006835D01*
X001633Y006650D01*
X001695Y007465D02*
X001633Y007527D01*
X001695Y007465D02*
X001818Y007465D01*
X001880Y007527D01*
X001880Y007588D01*
X001818Y007650D01*
X001757Y007650D01*
X001818Y007650D02*
X001880Y007712D01*
X001880Y007774D01*
X001818Y007835D01*
X001695Y007835D01*
X001633Y007774D01*
X001512Y007774D02*
X001512Y007650D01*
X001450Y007588D01*
X001265Y007588D01*
X001265Y007465D02*
X001265Y007835D01*
X001450Y007835D01*
X001512Y007774D01*
X001633Y008465D02*
X001880Y008712D01*
X001880Y008774D01*
X001818Y008835D01*
X001695Y008835D01*
X001633Y008774D01*
X001512Y008774D02*
X001512Y008650D01*
X001450Y008588D01*
X001265Y008588D01*
X001265Y008465D02*
X001265Y008835D01*
X001450Y008835D01*
X001512Y008774D01*
X001633Y008465D02*
X001880Y008465D01*
X001880Y009465D02*
X001633Y009465D01*
X001450Y009588D02*
X001265Y009588D01*
X001265Y009465D02*
X001265Y009835D01*
X001450Y009835D01*
X001512Y009774D01*
X001512Y009650D01*
X001450Y009588D01*
X001633Y009712D02*
X001757Y009835D01*
X001757Y009465D01*
X004368Y003684D02*
X004368Y003393D01*
X004562Y003393D01*
X004663Y003393D02*
X004663Y003684D01*
X004808Y003684D01*
X004856Y003635D01*
X004856Y003538D01*
X004808Y003490D01*
X004663Y003490D01*
X004957Y003442D02*
X005006Y003393D01*
X005103Y003393D01*
X005151Y003442D01*
X005252Y003442D02*
X005252Y003490D01*
X005300Y003538D01*
X005397Y003538D01*
X005446Y003490D01*
X005446Y003442D01*
X005397Y003393D01*
X005300Y003393D01*
X005252Y003442D01*
X005300Y003538D02*
X005252Y003587D01*
X005252Y003635D01*
X005300Y003684D01*
X005397Y003684D01*
X005446Y003635D01*
X005446Y003587D01*
X005397Y003538D01*
X005547Y003587D02*
X005644Y003684D01*
X005644Y003393D01*
X005740Y003393D02*
X005547Y003393D01*
X005841Y003393D02*
X006035Y003587D01*
X006035Y003635D01*
X005987Y003684D01*
X005890Y003684D01*
X005841Y003635D01*
X005841Y003393D02*
X006035Y003393D01*
X005151Y003635D02*
X005103Y003684D01*
X005006Y003684D01*
X004957Y003635D01*
X004957Y003442D01*
X008115Y003465D02*
X008115Y003835D01*
X008300Y003835D01*
X008362Y003774D01*
X008362Y003650D01*
X008300Y003588D01*
X008115Y003588D01*
X008483Y003465D02*
X008730Y003465D01*
X008607Y003465D02*
X008607Y003835D01*
X008483Y003712D01*
X008852Y003650D02*
X009099Y003650D01*
X009037Y003465D02*
X009037Y003835D01*
X008852Y003650D01*
X008913Y002835D02*
X009037Y002835D01*
X009099Y002774D01*
X009099Y002712D01*
X009037Y002650D01*
X009099Y002588D01*
X009099Y002527D01*
X009037Y002465D01*
X008913Y002465D01*
X008852Y002527D01*
X008730Y002465D02*
X008483Y002465D01*
X008607Y002465D02*
X008607Y002835D01*
X008483Y002712D01*
X008362Y002774D02*
X008362Y002650D01*
X008300Y002588D01*
X008115Y002588D01*
X008115Y002465D02*
X008115Y002835D01*
X008300Y002835D01*
X008362Y002774D01*
X008852Y002774D02*
X008913Y002835D01*
X008975Y002650D02*
X009037Y002650D01*
X009037Y001835D02*
X008913Y001835D01*
X008852Y001774D01*
X009037Y001835D02*
X009099Y001774D01*
X009099Y001712D01*
X008852Y001465D01*
X009099Y001465D01*
X008730Y001465D02*
X008483Y001465D01*
X008607Y001465D02*
X008607Y001835D01*
X008483Y001712D01*
X008362Y001774D02*
X008362Y001650D01*
X008300Y001588D01*
X008115Y001588D01*
X008115Y001465D02*
X008115Y001835D01*
X008300Y001835D01*
X008362Y001774D01*
X008300Y000835D02*
X008115Y000835D01*
X008115Y000465D01*
X008115Y000588D02*
X008300Y000588D01*
X008362Y000650D01*
X008362Y000774D01*
X008300Y000835D01*
X008483Y000712D02*
X008607Y000835D01*
X008607Y000465D01*
X008730Y000465D02*
X008483Y000465D01*
X008852Y000465D02*
X009099Y000465D01*
X008975Y000465D02*
X008975Y000835D01*
X008852Y000712D01*
X008913Y004465D02*
X008852Y004527D01*
X008913Y004465D02*
X009037Y004465D01*
X009099Y004527D01*
X009099Y004650D01*
X009037Y004712D01*
X008975Y004712D01*
X008852Y004650D01*
X008852Y004835D01*
X009099Y004835D01*
X008730Y004465D02*
X008483Y004465D01*
X008607Y004465D02*
X008607Y004835D01*
X008483Y004712D01*
X008362Y004774D02*
X008362Y004650D01*
X008300Y004588D01*
X008115Y004588D01*
X008115Y004465D02*
X008115Y004835D01*
X008300Y004835D01*
X008362Y004774D01*
X008483Y005465D02*
X008730Y005465D01*
X008607Y005465D02*
X008607Y005835D01*
X008483Y005712D01*
X008362Y005774D02*
X008362Y005650D01*
X008300Y005588D01*
X008115Y005588D01*
X008115Y005465D02*
X008115Y005835D01*
X008300Y005835D01*
X008362Y005774D01*
X008852Y005650D02*
X008852Y005527D01*
X008913Y005465D01*
X009037Y005465D01*
X009099Y005527D01*
X009099Y005588D01*
X009037Y005650D01*
X008852Y005650D01*
X008975Y005774D01*
X009099Y005835D01*
X008852Y006465D02*
X008852Y006527D01*
X009099Y006774D01*
X009099Y006835D01*
X008852Y006835D01*
X008607Y006835D02*
X008607Y006465D01*
X008730Y006465D02*
X008483Y006465D01*
X008300Y006588D02*
X008115Y006588D01*
X008115Y006465D02*
X008115Y006835D01*
X008300Y006835D01*
X008362Y006774D01*
X008362Y006650D01*
X008300Y006588D01*
X008483Y006712D02*
X008607Y006835D01*
X008607Y007465D02*
X008607Y007835D01*
X008483Y007712D01*
X008362Y007774D02*
X008362Y007650D01*
X008300Y007588D01*
X008115Y007588D01*
X008115Y007465D02*
X008115Y007835D01*
X008300Y007835D01*
X008362Y007774D01*
X008483Y007465D02*
X008730Y007465D01*
X008852Y007527D02*
X008852Y007588D01*
X008913Y007650D01*
X009037Y007650D01*
X009099Y007588D01*
X009099Y007527D01*
X009037Y007465D01*
X008913Y007465D01*
X008852Y007527D01*
X008913Y007650D02*
X008852Y007712D01*
X008852Y007774D01*
X008913Y007835D01*
X009037Y007835D01*
X009099Y007774D01*
X009099Y007712D01*
X009037Y007650D01*
X009037Y008465D02*
X008913Y008465D01*
X008852Y008527D01*
X008730Y008465D02*
X008483Y008465D01*
X008607Y008465D02*
X008607Y008835D01*
X008483Y008712D01*
X008362Y008774D02*
X008362Y008650D01*
X008300Y008588D01*
X008115Y008588D01*
X008115Y008465D02*
X008115Y008835D01*
X008300Y008835D01*
X008362Y008774D01*
X008852Y008774D02*
X008852Y008712D01*
X008913Y008650D01*
X009099Y008650D01*
X009099Y008527D02*
X009099Y008774D01*
X009037Y008835D01*
X008913Y008835D01*
X008852Y008774D01*
X009099Y008527D02*
X009037Y008465D01*
X009037Y009465D02*
X008913Y009465D01*
X008852Y009527D01*
X009099Y009774D01*
X009099Y009527D01*
X009037Y009465D01*
X008852Y009527D02*
X008852Y009774D01*
X008913Y009835D01*
X009037Y009835D01*
X009099Y009774D01*
X008730Y009774D02*
X008730Y009712D01*
X008483Y009465D01*
X008730Y009465D01*
X008730Y009774D02*
X008668Y009835D01*
X008545Y009835D01*
X008483Y009774D01*
X008362Y009774D02*
X008362Y009650D01*
X008300Y009588D01*
X008115Y009588D01*
X008115Y009465D02*
X008115Y009835D01*
X008300Y009835D01*
X008362Y009774D01*
D12*
X000150Y010150D02*
X000150Y000150D01*
X001150Y000150D01*
X009150Y000150D01*
X009150Y010150D01*
X001150Y010150D01*
X000150Y010150D01*
X001150Y010150D02*
X001150Y000150D01*
X004363Y003870D02*
X004363Y006430D01*
X004953Y006430D01*
X005347Y006430D01*
X005937Y006430D01*
X005937Y003870D01*
X004363Y003870D01*
X004953Y006430D02*
X004955Y006403D01*
X004960Y006377D01*
X004969Y006352D01*
X004982Y006328D01*
X004997Y006306D01*
X005016Y006286D01*
X005036Y006269D01*
X005059Y006255D01*
X005084Y006244D01*
X005110Y006237D01*
X005137Y006233D01*
X005163Y006233D01*
X005190Y006237D01*
X005216Y006244D01*
X005241Y006255D01*
X005264Y006269D01*
X005284Y006286D01*
X005303Y006306D01*
X005318Y006328D01*
X005331Y006352D01*
X005340Y006377D01*
X005345Y006403D01*
X005347Y006430D01*
X009150Y010150D02*
X010150Y010150D01*
X010150Y000150D01*
X009150Y000150D01*
D13*
X007636Y002420D02*
X007526Y002493D01*
X007636Y002567D01*
X007526Y002640D02*
X007526Y002420D01*
X007452Y002420D02*
X007305Y002420D01*
X007378Y002420D02*
X007378Y002640D01*
X007305Y002567D01*
X006549Y002593D02*
X006549Y002520D01*
X006512Y002483D01*
X006402Y002483D01*
X006402Y002410D02*
X006402Y002630D01*
X006512Y002630D01*
X006549Y002593D01*
X006475Y002483D02*
X006549Y002410D01*
X006328Y002410D02*
X006328Y002630D01*
X006181Y002630D02*
X006181Y002410D01*
X006254Y002483D01*
X006328Y002410D01*
X006107Y002520D02*
X006107Y002593D01*
X006070Y002630D01*
X005960Y002630D01*
X005960Y002410D01*
X005960Y002483D02*
X006070Y002483D01*
X006107Y002520D01*
X005291Y002557D02*
X005181Y002483D01*
X005291Y002410D01*
X005181Y002410D02*
X005181Y002630D01*
X005033Y002630D02*
X005033Y002410D01*
X004960Y002410D02*
X005107Y002410D01*
X004960Y002557D02*
X005033Y002630D01*
X004249Y002410D02*
X004102Y002410D01*
X004175Y002410D02*
X004175Y002630D01*
X004102Y002557D01*
X004028Y002410D02*
X003881Y002410D01*
X003954Y002410D02*
X003954Y002630D01*
X003881Y002557D01*
X003807Y002593D02*
X003807Y002520D01*
X003770Y002483D01*
X003660Y002483D01*
X003660Y002410D02*
X003660Y002630D01*
X003770Y002630D01*
X003807Y002593D01*
X003112Y002557D02*
X003002Y002483D01*
X003112Y002410D01*
X003002Y002410D02*
X003002Y002630D01*
X002928Y002593D02*
X002781Y002447D01*
X002818Y002410D01*
X002891Y002410D01*
X002928Y002447D01*
X002928Y002593D01*
X002891Y002630D01*
X002818Y002630D01*
X002781Y002593D01*
X002781Y002447D01*
X002707Y002410D02*
X002560Y002410D01*
X002633Y002410D02*
X002633Y002630D01*
X002560Y002557D01*
X007220Y005044D02*
X007440Y005044D01*
X007440Y005117D02*
X007440Y004970D01*
X007440Y004897D02*
X007403Y004897D01*
X007403Y004860D01*
X007440Y004860D01*
X007440Y004897D01*
X007293Y004970D02*
X007220Y005044D01*
X007293Y005191D02*
X007403Y005191D01*
X007440Y005228D01*
X007440Y005338D01*
X007293Y005338D01*
X003340Y008610D02*
X003340Y008757D01*
X003340Y008683D02*
X003120Y008683D01*
X003193Y008610D01*
X003157Y008831D02*
X003120Y008868D01*
X003120Y008941D01*
X003157Y008978D01*
X003303Y008831D01*
X003340Y008868D01*
X003340Y008941D01*
X003303Y008978D01*
X003157Y008978D01*
X003120Y009052D02*
X003340Y009052D01*
X003267Y009052D02*
X003193Y009162D01*
X003267Y009052D02*
X003340Y009162D01*
X003303Y008831D02*
X003157Y008831D01*
D14*
X003556Y002295D02*
X003556Y001744D01*
X003714Y001468D02*
X003950Y001232D01*
X004186Y001468D01*
X003714Y001468D01*
X003674Y001232D02*
X003950Y001232D01*
X004226Y001232D01*
X004344Y000956D02*
X004344Y000405D01*
X003556Y000405D01*
X003556Y000956D01*
X004344Y001744D02*
X004344Y002295D01*
X003556Y002295D01*
X005956Y002295D02*
X005956Y001744D01*
X006114Y001468D02*
X006350Y001232D01*
X006586Y001468D01*
X006114Y001468D01*
X006074Y001232D02*
X006350Y001232D01*
X006626Y001232D01*
X006744Y000956D02*
X006744Y000405D01*
X005956Y000405D01*
X005956Y000956D01*
X006744Y001744D02*
X006744Y002295D01*
X005956Y002295D01*
D15*
X007564Y005032D02*
X007564Y005268D01*
X008036Y005268D02*
X008036Y005032D01*
M02*
